<svg xmlns="http://www.w3.org/2000/svg" xmlns:xlink="http://www.w3.org/1999/xlink" width="23" height="23" viewBox="0 0 23 23"><defs><path id="a" d="M722.95 186.77h.02l-2.5 11.25h-.02c-.13.55-.6.98-1.2.98h-12.5c-.6 0-1.07-.43-1.2-.99l-.02.01-2.5-11.25h.02c-.02-.1-.05-.18-.05-.27 0-.7.56-1.25 1.25-1.25h2.5a6.25 6.25 0 1 1 12.5 0h2.5c.69 0 1.25.56 1.25 1.25 0 .1-.03.18-.05.27zM713 181.5a3.75 3.75 0 0 0-3.75 3.75h7.5a3.75 3.75 0 0 0-3.75-3.75zm5 8.75c-.7 0-1.25-.56-1.25-1.25v-1.25h-7.5V189a1.25 1.25 0 1 1-2.5 0v-1.25h-.94l1.94 8.75h10.5l1.94-8.75h-.94V189c0 .69-.56 1.25-1.25 1.25z"/></defs><g transform="translate(-701 -177)"><use fill="#bdc3c7" xlink:href="#a"/><use fill="#fff" xlink:href="#a"/></g></svg>