<svg xmlns="http://www.w3.org/2000/svg" xmlns:xlink="http://www.w3.org/1999/xlink" width="21" height="25" viewBox="0 0 21 25"><defs><path id="a" d="M544 190.3a4.8 4.8 0 0 1-4.75 4.86 4.66 4.66 0 0 1-3.78-1.96l-.02.02-.95-1.3-.95 1.3-.01-.01a4.7 4.7 0 0 1-3.79 1.95 4.8 4.8 0 0 1-4.74-4.85c0-1.1.36-2.1.96-2.9l-.01-.01s6.96-8.4 8.54-8.4c1.58 0 8.54 8.4 8.54 8.4h-.01c.6.82.96 1.82.96 2.9zm-11.08 6.47v-1.61c0-.9.7-1.62 1.58-1.62.87 0 1.58.72 1.58 1.62v1.61c.88 0 1.58.73 1.58 1.62 0 .9-.7 1.62-1.58 1.62h-3.16a1.6 1.6 0 0 1-1.58-1.62c0-.9.7-1.62 1.58-1.62z"/></defs><g transform="translate(-524 -177)"><use fill="#bdc3c7" xlink:href="#a"/><use fill="#fff" xlink:href="#a"/></g></svg>