<svg xmlns="http://www.w3.org/2000/svg" xmlns:xlink="http://www.w3.org/1999/xlink" width="26" height="26" viewBox="0 0 26 26"><defs><path id="a" d="M362.4 197h-3.62l-3.79 3.79a1.4 1.4 0 0 1-1.98 0l-3.79-3.8h-3.62a2.8 2.8 0 0 1-2.8-2.79v-12.6a2.8 2.8 0 0 1 2.8-2.8h16.8a2.8 2.8 0 0 1 2.8 2.8v12.6a2.8 2.8 0 0 1-2.8 2.8zm0-14c0-.77-.63-1.4-1.4-1.4h-14c-.77 0-1.4.63-1.4 1.4v9.8c0 .77.63 1.4 1.4 1.4h2.8c.39 0 .74.16.99.41l3.21 3.2 3.21-3.2c.25-.25.6-.41.99-.41h2.8c.77 0 1.4-.63 1.4-1.4zm-4.2 8.4h-8.4a1.4 1.4 0 1 1 0-2.8h8.4a1.4 1.4 0 0 1 0 2.8zm0-4.2h-8.4a1.4 1.4 0 1 1 0-2.8h8.4a1.4 1.4 0 0 1 0 2.8z"/></defs><g transform="translate(-341 -177)"><use fill="#bdc3c7" xlink:href="#a"/><use fill="#fff" xlink:href="#a"/></g></svg>